<?xml version="1.0" encoding="utf-8"?><!-- Uploaded to: SVG Repo, www.svgrepo.com, Generator: SVG Repo Mixer Tools -->
<svg fill="#000000" width="800px" height="800px" viewBox="0 0 24 24" xmlns="http://www.w3.org/2000/svg">
  <path d="M9.26402604,18 C8.79719433,18.6226198 8.05922695,19 7.26393202,19 L4.5,19 C3.11928813,19 2,17.8807119 2,16.5 L2,9.5 C2,8.27576856 2.8799598,7.25706275 4.04188098,7.04188098 C4.25706275,5.8799598 5.27576856,5 6.5,5 L17.5,5 C18.7242314,5 19.7429373,5.8799598 19.958119,7.04188098 C21.1200402,7.25706275 22,8.27576856 22,9.5 L22,16.5 C22,17.8807119 20.8807119,19 19.5,19 L16.736068,19 C15.940773,19 15.2028057,18.6226198 14.735974,18 L9.26402604,18 Z M9.82576985,17 L14.1742301,17 C13.7685119,16.3807773 13.0746523,16 12.322949,16 L11.677051,16 C10.9253477,16 10.2314881,16.3807773 9.82576985,17 Z M5.08535285,7 L18.9146471,7 C18.7087289,6.41740381 18.1531094,6 17.5,6 L6.5,6 C5.84689059,6 5.29127106,6.41740381 5.08535285,7 Z M8.8027864,16.7763932 C9.34713196,15.6877021 10.4598573,15 11.677051,15 L12.322949,15 C13.5401427,15 14.652868,15.6877021 15.1972136,16.7763932 L15.3944272,17.1708204 C15.6485152,17.6789964 16.1679099,18 16.736068,18 L19.5,18 C20.3284271,18 21,17.3284271 21,16.5 L21,9.5 C21,8.67157288 20.3284271,8 19.5,8 L4.5,8 C3.67157288,8 3,8.67157288 3,9.5 L3,16.5 C3,17.3284271 3.67157288,18 4.5,18 L7.26393202,18 C7.83209011,18 8.35148479,17.6789964 8.60557281,17.1708204 L8.8027864,16.7763932 Z M7.5,15 C6.11928813,15 5,13.8807119 5,12.5 C5,11.1192881 6.11928813,10 7.5,10 C8.88071187,10 10,11.1192881 10,12.5 C10,13.8807119 8.88071187,15 7.5,15 Z M7.5,14 C8.32842712,14 9,13.3284271 9,12.5 C9,11.6715729 8.32842712,11 7.5,11 C6.67157288,11 6,11.6715729 6,12.5 C6,13.3284271 6.67157288,14 7.5,14 Z M16.5,15 C15.1192881,15 14,13.8807119 14,12.5 C14,11.1192881 15.1192881,10 16.5,10 C17.8807119,10 19,11.1192881 19,12.5 C19,13.8807119 17.8807119,15 16.5,15 Z M16.5,14 C17.3284271,14 18,13.3284271 18,12.5 C18,11.6715729 17.3284271,11 16.5,11 C15.6715729,11 15,11.6715729 15,12.5 C15,13.3284271 15.6715729,14 16.5,14 Z"/>
</svg>